<svg width="13" height="13" viewBox="0 0 13 13" fill="none" xmlns="http://www.w3.org/2000/svg">
<path d="M10.111 10.8332H2.16656V2.88873H6.94045L7.66267 2.1665H2.16656C1.97501 2.1665 1.79131 2.24259 1.65587 2.37804C1.52043 2.51348 1.44434 2.69718 1.44434 2.88873V10.8332C1.44434 11.0247 1.52043 11.2084 1.65587 11.3439C1.79131 11.4793 1.97501 11.5554 2.16656 11.5554H10.111C10.3025 11.5554 10.4862 11.4793 10.6217 11.3439C10.7571 11.2084 10.8332 11.0247 10.8332 10.8332V5.4165L10.111 6.13873V10.8332Z" fill="#90A1B8"/>
<path d="M12.1076 2.10898L10.8907 0.89204C10.8367 0.837884 10.7725 0.794917 10.7019 0.765599C10.6313 0.736282 10.5555 0.721191 10.479 0.721191C10.4026 0.721191 10.3268 0.736282 10.2562 0.765599C10.1855 0.794917 10.1214 0.837884 10.0674 0.89204L5.11654 5.87176L4.7157 7.60871C4.69863 7.6929 4.70042 7.77984 4.72096 7.86326C4.7415 7.94668 4.78027 8.02451 4.83448 8.09115C4.88869 8.1578 4.957 8.2116 5.0345 8.24869C5.11199 8.28578 5.19674 8.30523 5.28265 8.30565C5.32705 8.31051 5.37185 8.31051 5.41626 8.30565L7.16765 7.91926L12.1076 2.93232C12.1618 2.87831 12.2048 2.81415 12.2341 2.74351C12.2634 2.67287 12.2785 2.59713 12.2785 2.52065C12.2785 2.44417 12.2634 2.36844 12.2341 2.29779C12.2048 2.22715 12.1618 2.16299 12.1076 2.10898ZM6.79209 7.25121L5.47042 7.54371L5.77737 6.23287L9.50404 2.48093L10.5224 3.49926L6.79209 7.25121ZM10.9304 3.09121L9.91209 2.07287L10.4718 1.50232L11.4974 2.52787L10.9304 3.09121Z" fill="#90A1B8"/>
</svg>
